<svg height='100px' width='100px'  fill="#8fbe00" xmlns="http://www.w3.org/2000/svg" xmlns:xlink="http://www.w3.org/1999/xlink" xml:space="preserve" version="1.1" style="shape-rendering:geometricPrecision;text-rendering:geometricPrecision;image-rendering:optimizeQuality;" viewBox="0 0 80 80" x="0px" y="0px" fill-rule="evenodd" clip-rule="evenodd"><defs><style type="text/css">
   
    .fil0 {fill:#8fbe00}
   
  </style></defs><g><path class="fil0" d="M29.868 61.231c0,1.078 -0.875,1.952 -1.954,1.952l-8.085 0c-1.079,0 -1.954,-0.874 -1.954,-1.952l0 -9.947c0,-1.081 0.875,-1.954 1.954,-1.954l8.085 0c1.079,0 1.954,0.873 1.954,1.954l0 9.947zm-20.658 -50.42c0,-1.089 0.882,-1.971 1.971,-1.971 1.088,0 1.97,0.882 1.97,1.971l0 56.408 55.669 0c1.088,0 1.97,0.882 1.97,1.97 0,1.088 -0.882,1.971 -1.97,1.971l-57.639 0c-1.089,0 -1.971,-0.883 -1.971,-1.971l0 -58.378zm54.711 50.42c0,1.078 -0.874,1.952 -1.954,1.952l-8.085 0c-1.079,0 -1.954,-0.874 -1.954,-1.952l0 -41.591c0,-1.079 0.875,-1.954 1.954,-1.954l8.085 0c1.08,0 1.954,0.875 1.954,1.954l0 41.591zm-17.027 0c0,1.078 -0.875,1.952 -1.953,1.952l-8.086 0c-1.079,0 -1.953,-0.874 -1.953,-1.952l0 -23.75c0,-1.08 0.874,-1.954 1.953,-1.954l8.086 0c1.078,0 1.953,0.874 1.953,1.954l0 23.75z"></path></g></svg>