<svg height='100px' width='100px'  fill="#8fbe00" xmlns="http://www.w3.org/2000/svg" xmlns:xlink="http://www.w3.org/1999/xlink" version="1.1" x="0px" y="0px" viewBox="0 0 100 100" style="enable-background:new 0 0 100 100;" xml:space="preserve"><g><polygon points="78.4,41.09 85.65,35.87 78.4,35.87  "></polygon><polygon points="14.35,35.87 21.6,41.09 21.6,35.87  "></polygon><path d="M75.4,43.26V16.58c0-4.186-3.394-7.58-7.58-7.58H32.18c-4.186,0-7.58,3.394-7.58,7.58v26.68L50,61.58L75.4,43.26z    M33,16.25h34c0.83,0,1.5,0.67,1.5,1.5c0,0.83-0.67,1.5-1.5,1.5H33c-0.83,0-1.5-0.67-1.5-1.5C31.5,16.92,32.17,16.25,33,16.25z    M33,29h34c0.83,0,1.5,0.67,1.5,1.5c0,0.83-0.67,1.5-1.5,1.5H33c-0.83,0-1.5-0.67-1.5-1.5C31.5,29.67,32.17,29,33,29z M31.5,43.25   c0-0.83,0.67-1.5,1.5-1.5h26c0.83,0,1.5,0.67,1.5,1.5c0,0.83-0.67,1.5-1.5,1.5H33C32.17,44.75,31.5,44.08,31.5,43.25z"></path><path d="M77.72,45.28L50.88,64.65c-0.02,0.02-0.05,0.02-0.07,0.04c-0.09,0.05-0.19,0.1-0.29,0.14c-0.04,0.01-0.07,0.03-0.11,0.04   c-0.13,0.04-0.27,0.06-0.4,0.06H50h-0.01c-0.13,0-0.27-0.02-0.4-0.06c-0.04-0.01-0.07-0.03-0.11-0.04c-0.1-0.04-0.2-0.09-0.29-0.14   c-0.02-0.02-0.05-0.02-0.07-0.04L22.28,45.28c-0.02-0.01-0.04-0.02-0.06-0.04L11.21,37.3v45.805c0,4.36,3.535,7.895,7.895,7.895   h61.79c4.36,0,7.895-3.535,7.895-7.895V37.3l-11.01,7.94C77.76,45.26,77.74,45.27,77.72,45.28z"></path></g></svg>